<svg xmlns="http://www.w3.org/2000/svg" width="19" height="19" viewBox="0 0 19 19">
  <g id="그룹_4615" data-name="그룹 4615" transform="translate(-49.752 -92.249)">
    <path id="패스_5215" data-name="패스 5215" d="M6034.251,9674.23a1.119,1.119,0,0,0,1.039,1.185h15.923a1.119,1.119,0,0,0,1.038-1.185v-.157a1.12,1.12,0,0,0-1.038-1.186h-15.923a1.119,1.119,0,0,0-1.039,1.186Z" transform="translate(-5984 -9572.403)" fill="#bc03eb" stroke="#bd02eb" stroke-width="1"/>
    <path id="패스_5216" data-name="패스 5216" d="M6073.437,9652.889a1.12,1.12,0,0,1-1.185-1.038v-15.923a1.12,1.12,0,0,1,1.185-1.039h.157a1.119,1.119,0,0,1,1.185,1.039v15.923a1.119,1.119,0,0,1-1.185,1.038Z" transform="translate(-6014.263 -9542.14)" fill="#bc03eb" stroke="#bd02eb" stroke-width="1"/>
  </g>
</svg>
