<svg xmlns="http://www.w3.org/2000/svg" width="26" height="23.217" viewBox="0 0 26 23.217">
  <g id="그룹_4379" data-name="그룹 4379" transform="translate(-8197.452 -8166.469)">
    <g id="그룹_3079" data-name="그룹 3079" transform="translate(8197.952 8166.969)">
      <g id="그룹_3078" data-name="그룹 3078" transform="translate(0 0)">
        <path id="패스_3884" data-name="패스 3884" d="M8216.2,8168.026a5.664,5.664,0,0,1,5.691,5.823c0,4.928-2.595,7-8.273,10.888-1.355.931-2.938,2.232-3.164,2.825-.226-.592-1.809-1.894-3.164-2.825-5.68-3.892-8.274-5.96-8.274-10.888a5.664,5.664,0,0,1,5.692-5.823,5.043,5.043,0,0,1,1.289.164,4.457,4.457,0,1,0,8.914,0,5.037,5.037,0,0,1,1.289-.164m0-1.056a6.1,6.1,0,0,0-1.563.2,4.427,4.427,0,0,1-8.365,0,6.11,6.11,0,0,0-1.563-.2,6.9,6.9,0,0,0-4.577,1.768,6.779,6.779,0,0,0-2.177,5.111c0,5.516,2.994,7.825,8.733,11.757a20.462,20.462,0,0,1,2.783,2.353l.983,1.01.983-1.01a20.469,20.469,0,0,1,2.783-2.354c5.738-3.932,8.733-6.241,8.733-11.757a6.781,6.781,0,0,0-2.178-5.111,6.9,6.9,0,0,0-4.576-1.768Z" transform="translate(-8197.952 -8166.97)" fill="#fff" stroke="#fff" stroke-width="1"/>
      </g>
    </g>
  </g>
</svg>
