<svg xmlns="http://www.w3.org/2000/svg" width="80" height="80" viewBox="0 0 80 80">
    <g>
        <path fill="#fff" d="M0 0H80V80H0z" transform="translate(-1819) translate(1819)"/>
        <g>
            <path fill="#32b161" d="M2.956 0c.785-.05 3.536 11.531 2.984 12.66s-5.623 1.447-6.161.293S2.17.05 2.956 0z" transform="translate(-1819) rotate(-164 932.247 -115.748)"/>
            <path fill="#ff4040" d="M20 4.58c2.861 0 2.938-2.435 8.259-2.435 8.57 0 13.282 8 11.741 17.252C33.358 44.522 27.183 36.9 20 36.9S7.082 44.62 0 19.4C-2.028 9.909 3.1 1.9 12.345 1.9c5.355 0 4.86 2.68 7.655 2.68z" transform="translate(-1819) translate(1839 21.07)"/>
        </g>
    </g>
</svg>
