<svg xmlns="http://www.w3.org/2000/svg" width="8" height="14.485" viewBox="0 0 8 14.485">
  <g id="그룹_4612" data-name="그룹 4612" transform="translate(-458.006 -98.974)">
    <path id="패스_5267" data-name="패스 5267" d="M6024.659,10809.23a.9.9,0,0,1-1.273,0l-6.115-6.115a.9.9,0,0,1,0-1.272l.085-.085a.9.9,0,0,1,1.273,0l6.115,6.115a.9.9,0,0,1,0,1.272Z" transform="translate(-5559 -10702.521)" fill="#535453"/>
    <path id="패스_5268" data-name="패스 5268" d="M6017.355,10843.23a.9.9,0,0,0,1.272,0l6.115-6.115a.9.9,0,0,0,0-1.273l-.085-.084a.9.9,0,0,0-1.273,0l-6.115,6.114a.9.9,0,0,0,0,1.273Z" transform="translate(-5559 -10730.034)" fill="#535453"/>
  </g>
</svg>
