<svg xmlns="http://www.w3.org/2000/svg" width="25" height="25" viewBox="0 0 25 25">
  <g id="그룹_4625" data-name="그룹 4625" transform="translate(-5353.869 -8413.262)">
    <path id="패스_4760" data-name="패스 4760" d="M5676.369,13711.262a12.5,12.5,0,1,0,12.5,12.5A12.5,12.5,0,0,0,5676.369,13711.262Zm0,22.461a9.96,9.96,0,1,1,9.961-9.961A9.961,9.961,0,0,1,5676.369,13733.723Z" transform="translate(-310 -5298)" fill="#fff"/>
    <circle id="타원_62" data-name="타원 62" cx="1.38" cy="1.38" r="1.38" transform="translate(5365.069 8424.381)" fill="#fff"/>
    <path id="패스_4763" data-name="패스 4763" d="M5710.005,13736.094a.529.529,0,0,1-.529.529h0a.528.528,0,0,1-.528-.529v-6.445a.528.528,0,0,1,.528-.529h0a.529.529,0,0,1,.529.529Z" transform="translate(-343.027 -5311.068)" fill="#fff"/>
    <path id="패스_4764" data-name="패스 4764" d="M5713.52,13759.691a.528.528,0,0,1,0,.746h0a.528.528,0,0,1-.748,0l-3.059-3.059a.53.53,0,0,1,0-.748h0a.532.532,0,0,1,.748,0Z" transform="translate(-343.46 -5331.112)" fill="#fff"/>
  </g>
</svg>
