<svg xmlns="http://www.w3.org/2000/svg" width="30" height="20" viewBox="0 0 30 20">
  <g id="그룹_3404" data-name="그룹 3404" transform="translate(-1302.6 -6709.386)">
    <g id="그룹_78" data-name="그룹 78" transform="translate(1307.994 6710.297)">
      <path id="패스_73" data-name="패스 73" d="M1345.778,6723.922a5.1,5.1,0,1,0-5.184-.029c-4.135,1.089-6.363,4.881-7,9.583h19.1C1352.052,6728.81,1349.852,6725.042,1345.778,6723.922Z" transform="translate(-1333.589 -6714.386)" fill="#fff"/>
    </g>
    <g id="그룹_80" data-name="그룹 80" transform="translate(1322.218 6709.386)">
      <g id="그룹_79" data-name="그룹 79" transform="translate(0)">
        <path id="패스_74" data-name="패스 74" d="M1421.673,6728.729c-.6-4.4-2.646-7.023-6.25-8.013l-2.088-.574,1.87-1.095a4.2,4.2,0,0,0-2.11-7.835v-1.826a6.028,6.028,0,0,1,4.4,10.132c3.361,1.488,5.37,4.5,5.981,8.963Z" transform="translate(-1413.095 -6709.386)" fill="#fff"/>
      </g>
    </g>
    <g id="그룹_82" data-name="그룹 82" transform="translate(1302.6 6709.386)">
      <g id="그룹_81" data-name="그룹 81" transform="translate(0)">
        <path id="패스_75" data-name="패스 75" d="M1304.4,6728.729l-1.8-.248c.611-4.468,2.62-7.475,5.981-8.963a6.029,6.029,0,0,1,4.4-10.132v1.826a4.2,4.2,0,0,0-2.11,7.834l1.871,1.095-2.089.574C1307.05,6721.706,1305.006,6724.326,1304.4,6728.729Z" transform="translate(-1302.6 -6709.386)" fill="#fff"/>
      </g>
    </g>
  </g>
</svg>
